<svg width="83" height="47" viewBox="0 0 83 47" fill="none" xmlns="http://www.w3.org/2000/svg">
<path d="M45.7891 12.6977V0.480347H30.5261L0 30.9786V46.2277H15.263L27.4615 34.0405V46.2277H42.7245L54.953 34.0405V46.2277H73.2506V27.9468H61.0522L73.2506 15.7295V0.480347H57.9875L45.7891 12.6977Z" fill="#E81B45"/>
<path d="M80.6417 43.376C80.7319 43.256 80.7619 43.1059 80.7619 42.9858C80.7619 42.5655 80.4314 42.2354 80.0108 42.2354H78.1179V44.2165H78.8991V43.7363H79.5901L79.9507 44.2165H80.7619L80.3413 43.6762C80.4615 43.5862 80.5816 43.4961 80.6417 43.376ZM79.9507 43.0759C79.9206 43.1059 79.8906 43.1359 79.8305 43.1359H78.8991V42.8057H79.8305C79.9206 42.8057 80.0108 42.8657 80.0108 42.9858C80.0108 43.0158 79.9807 43.0458 79.9507 43.0759Z" fill="#E81B45"/>
<path d="M79.3498 40.134C77.6672 40.134 76.2852 41.5149 76.2852 43.1959C76.2852 44.8769 77.6672 46.2577 79.3498 46.2577C81.0323 46.2577 82.4144 44.8769 82.4144 43.1959C82.4144 41.4848 81.0323 40.134 79.3498 40.134ZM79.3498 45.5673C78.0278 45.5673 76.9762 44.5167 76.9762 43.1959C76.9762 41.8751 78.0278 40.8244 79.3498 40.8244C80.6718 40.8244 81.7234 41.8751 81.7234 43.1959C81.7234 44.4866 80.6718 45.5673 79.3498 45.5673Z" fill="#E81B45"/>
</svg>
